<svg xmlns="http://www.w3.org/2000/svg" viewBox="0 0 32 32" fill="none">
  <defs>
    <linearGradient id="crownGradient" x1="0%" y1="0%" x2="100%" y2="100%">
      <stop offset="0%" style="stop-color:#FFD700;stop-opacity:1" />
      <stop offset="50%" style="stop-color:#FFA500;stop-opacity:1" />
      <stop offset="100%" style="stop-color:#FF8C00;stop-opacity:1" />
    </linearGradient>
  </defs>
  
  <!-- Crown Base -->
  <path d="M4 20 L28 20 L26 26 L6 26 Z" fill="url(#crownGradient)" stroke="#B8860B" stroke-width="0.5"/>
  
  <!-- Crown Points -->
  <path d="M6 20 L8 12 L10 18 L12 8 L14 16 L16 6 L18 16 L20 8 L22 18 L24 12 L26 20" 
        fill="url(#crownGradient)" stroke="#B8860B" stroke-width="0.5"/>
  
  <!-- Crown Jewels -->
  <circle cx="16" cy="10" r="1.5" fill="#FF4444"/>
  <circle cx="12" cy="14" r="1" fill="#4444FF"/>
  <circle cx="20" cy="14" r="1" fill="#44FF44"/>
  <circle cx="8" cy="16" r="0.8" fill="#FF44FF"/>
  <circle cx="24" cy="16" r="0.8" fill="#44FFFF"/>
  
  <!-- Crown Highlights -->
  <path d="M6 20 L8 12 L10 18 L12 8 L14 16 L16 6 L18 16 L20 8 L22 18 L24 12 L26 20" 
        fill="none" stroke="#FFFF88" stroke-width="0.3" opacity="0.7"/>
</svg>